<svg xmlns="http://www.w3.org/2000/svg" viewBox="0 0 32 32" fill="none">
  <!-- Elivro Favicon - Simplified Logo Mark -->

  <!-- Four Loop/Petal Shapes (scaled for 32x32) -->
  <!-- Top petal -->
  <path d="M16 2.5 C13.5 2.5, 12 5, 12 7.5 C12 10, 14 13, 16 14 C18 13, 20 10, 20 7.5 C20 5, 18.5 2.5, 16 2.5 Z"
        stroke="#B86B4C" stroke-width="1.5" fill="none" stroke-linecap="round"/>

  <!-- Right petal -->
  <path d="M29.5 16 C29.5 13.5, 27 12, 24.5 12 C22 12, 19 14, 18 16 C19 18, 22 20, 24.5 20 C27 20, 29.5 18.5, 29.5 16 Z"
        stroke="#B86B4C" stroke-width="1.5" fill="none" stroke-linecap="round"/>

  <!-- Bottom petal -->
  <path d="M16 29.5 C18.5 29.5, 20 27, 20 24.5 C20 22, 18 19, 16 18 C14 19, 12 22, 12 24.5 C12 27, 13.5 29.5, 16 29.5 Z"
        stroke="#B86B4C" stroke-width="1.5" fill="none" stroke-linecap="round"/>

  <!-- Left petal -->
  <path d="M2.5 16 C2.5 18.5, 5 20, 7.5 20 C10 20, 13 18, 14 16 C13 14, 10 12, 7.5 12 C5 12, 2.5 13.5, 2.5 16 Z"
        stroke="#B86B4C" stroke-width="1.5" fill="none" stroke-linecap="round"/>

  <!-- Center dot -->
  <circle cx="16" cy="16" r="1.5" fill="#B86B4C"/>

  <!-- Four corner dots (simplified from 8) -->
  <circle cx="16" cy="5.5" r="1.5" stroke="#B86B4C" stroke-width="1" fill="none"/>
  <circle cx="26.5" cy="16" r="1.5" stroke="#B86B4C" stroke-width="1" fill="none"/>
  <circle cx="16" cy="26.5" r="1.5" stroke="#B86B4C" stroke-width="1" fill="none"/>
  <circle cx="5.5" cy="16" r="1.5" stroke="#B86B4C" stroke-width="1" fill="none"/>
</svg>
